<?xml version="1.0" encoding="utf-8"?>
<!-- Generator: Adobe Illustrator 25.2.3, SVG Export Plug-In . SVG Version: 6.00 Build 0)  -->
<svg version="1.1" id="b99673b1-7cd6-4717-a7df-a368e53d4968"
	 xmlns="http://www.w3.org/2000/svg" xmlns:xlink="http://www.w3.org/1999/xlink" x="0px" y="0px" viewBox="0 0 932 463"
	 style="enable-background:new 0 0 932 463;" xml:space="preserve">
<style type="text/css">
	.st0{fill:#2F2E41;}
	.st1{fill:#6C63FF;}
	.st2{fill:#C1C9DA;}
</style>
<path class="st0" d="M932,0H473.3c-3.5,21.5-5.3,43.2-5.3,65c0,219.8,178.2,398,398,398c22.1,0,44.2-1.8,66-5.5V0z"/>
<g>
	<path class="st1" d="M767.5,314.1c-14.8,0-29.4-2.6-43.3-7.8c-3.3-1.2-5.1-4.9-3.9-8.2c1.2-3.3,4.9-5.1,8.2-3.9
		c0.1,0,0.1,0,0.2,0.1c37.4,13.8,79.2,6.8,110.1-18.3c-47.2,0.5-93.6-21.9-116.6-57.8c-14.8-23.1-19.6-50.2-14-78.5
		c4.3-20.5,13.2-39.8,26-56.4c-50.2,16-82.5,64.9-77.3,117.3c0.4,3.6-2.2,6.7-5.8,7.1c-3.6,0.4-6.7-2.2-7.1-5.8l0,0
		c-6.5-66.5,40.6-126.4,106.8-135.6c3.5-0.5,6.8,2,7.3,5.5c0.3,2-0.4,4-1.8,5.4c-32.9,33.5-52.9,87.9-23.3,134
		c23.3,36.5,73.6,57.2,122.2,50.6c3.5-0.5,6.8,1.9,7.3,5.4c0.3,1.9-0.3,3.9-1.6,5.3C837,299.1,803.1,314.2,767.5,314.1z"/>
	<path class="st1" d="M664.7,316.7c-26.1,0-47.2-21.1-47.2-47.2s21.1-47.2,47.2-47.2c26.1,0,47.2,21.1,47.2,47.2l0,0
		C712,295.6,690.8,316.7,664.7,316.7L664.7,316.7z M664.7,235.1c-19,0-34.4,15.4-34.4,34.4c0,19,15.4,34.4,34.4,34.4
		s34.4-15.4,34.4-34.4C699.1,250.5,683.7,235.1,664.7,235.1z"/>
</g>
<path class="st2" d="M464,0H5.3C1.8,21.5,0,43.2,0,65c0,219.8,178.2,398,398,398c22.1,0,44.2-1.8,66-5.5V0z"/>
<g>
	<path class="st1" d="M272,103.1c-5.4,0-9.8-4.4-9.8-9.8V63.8c0-5.4,4.4-9.8,9.8-9.8c5.4,0,9.8,4.4,9.8,9.8c0,0,0,0,0,0v29.5
		C281.8,98.7,277.4,103.1,272,103.1L272,103.1z"/>
	<path class="st1" d="M272,329c-5.4,0-9.8-4.4-9.8-9.8l0,0v-29.5c0-5.4,4.4-9.8,9.8-9.8c5.4,0,9.8,4.4,9.8,9.8c0,0,0,0,0,0v29.6
		c0,5.4-4.4,9.8-9.8,9.8V329z"/>
	<path class="st1" d="M341.4,131.8c-5.4,0-9.8-4.4-9.8-9.8c0-2.6,1-5.1,2.9-7l20.8-20.9c3.8-3.8,10.1-3.8,13.9,0
		c3.8,3.8,3.8,10.1,0,13.9L348.4,129C346.5,130.8,344,131.8,341.4,131.8z"/>
	<path class="st1" d="M181.7,291.6c-5.4,0-9.8-4.4-9.8-9.8c0-2.6,1-5.1,2.9-6.9l20.9-20.8c3.8-3.8,10.1-3.8,13.9,0
		c3.8,3.8,3.8,10.1,0,13.9l0,0l-20.8,20.9C186.8,290.5,184.3,291.6,181.7,291.6z"/>
	<path class="st1" d="M399.7,201.3h-29.5c-5.4,0-9.8-4.4-9.8-9.8c0-5.4,4.4-9.8,9.8-9.8c0,0,0,0,0,0h29.5c5.4,0,9.8,4.4,9.8,9.8
		C409.5,196.9,405.1,201.3,399.7,201.3C399.7,201.3,399.7,201.3,399.7,201.3L399.7,201.3z"/>
	<path class="st1" d="M173.8,201.3h-29.5c-5.4,0-9.8-4.4-9.8-9.8c0-5.4,4.4-9.8,9.8-9.8c0,0,0,0,0,0h29.5c5.4,0,9.8,4.4,9.8,9.8
		C183.6,196.9,179.2,201.3,173.8,201.3C173.8,201.3,173.8,201.3,173.8,201.3z"/>
	<path class="st1" d="M362.3,291.6c-2.6,0-5-1.1-6.8-2.9l-20.8-20.9c-3.8-3.8-3.9-10,0-13.9c3.8-3.8,10-3.9,13.9,0l0,0l20.9,20.8
		c3.8,3.8,3.8,10.1,0,13.9C367.5,290.5,365,291.5,362.3,291.6L362.3,291.6z"/>
	<path class="st1" d="M202.6,131.8c-2.6,0-5.1-1-6.9-2.9l-20.9-20.8c-3.8-3.8-3.8-10.1,0-13.9c3.8-3.8,10.1-3.8,13.9,0l20.8,20.9
		c3.8,3.8,3.8,10,0,13.9C207.7,130.8,205.2,131.8,202.6,131.8L202.6,131.8z"/>
	<path class="st1" d="M272,250.4c-32.5,0-58.9-26.4-58.9-58.9s26.4-58.9,58.9-58.9s58.9,26.4,58.9,58.9l0,0
		C330.9,224,304.5,250.4,272,250.4z M272,152.2c-21.7,0-39.3,17.6-39.3,39.3c0,21.7,17.6,39.3,39.3,39.3c21.7,0,39.3-17.6,39.3-39.3
		S293.7,152.2,272,152.2L272,152.2z"/>
</g>
</svg>
