<?xml version="1.0" encoding="utf-8"?>
<!-- Generator: Adobe Illustrator 25.2.3, SVG Export Plug-In . SVG Version: 6.00 Build 0)  -->
<svg version="1.1" id="Layer_1" xmlns="http://www.w3.org/2000/svg" xmlns:xlink="http://www.w3.org/1999/xlink" x="0px" y="0px"
	 viewBox="0 0 1853 268" style="enable-background:new 0 0 1853 268;" xml:space="preserve">
<style type="text/css">
	.st0{fill:#6699CC;}
</style>
<g>
	<g>
		<path class="st0" d="M288.3,169.6h4.6c0.9,17,7.8,31,20.5,42c12.5,10.9,26.8,16.3,43,16.3c12.5,0,22.6-3.5,30.4-10.5
			c7.8-7,11.7-15.4,11.7-25.3c0-10.3-3.8-18.4-11.3-24.1c-7.3-5.6-21.7-11.9-43.1-18.9c-17.2-5.7-29.5-10.4-36.8-14.1
			c-8.5-4.4-15.1-10.3-19.9-17.7c-5.2-7.6-7.8-16-7.8-25.5c0-10.5,3.5-20.8,10.5-30.8c-1.6,5.2-2.4,9.7-2.4,13.5
			c0,10.3,2.5,19.4,7.4,27.2c5,8.1,11.3,14.2,18.7,18.3c7.4,4.2,19.8,9.1,37.2,14.5c22.7,6.9,39,14.5,49.1,22.9
			c9.7,8.1,14.5,19,14.5,32.6c0,13.4-5,25.5-15.1,36.4c-10.2,11-25.5,16.5-45.7,16.5c-8.2,0-19.6-1.5-34.2-4.6
			c-12.7-2.6-22.3-4-28.6-4.2l-1.4-1.6c0.1-2.2,0.2-5.2,0.2-8.8c0-4.2-0.4-10.8-1.2-19.7c-0.7-8.9-1-15.5-1-19.9
			C287.5,178.7,287.7,173.8,288.3,169.6z M428.7,86.5h-4.2c-0.1-15.4-6.2-26.8-18.3-34.2c-11.8-7.3-26.1-10.9-43-10.9
			c-13.4,0-24.4,2.8-33,8.5c-8.8,5.7-13.1,12.5-13.1,20.5c0,8.5,3.5,15.2,10.3,20.1c7.2,5.3,21.3,11.6,42.4,18.9
			c19.6,6.8,33.3,12.3,41.2,16.5c8.4,4.6,15.3,11.3,20.9,19.9c5.6,8.9,8.4,18.8,8.4,29.6c0,16.6-6.1,29.6-18.3,39
			c4.5-6.2,6.8-15,6.8-26.2c0-10.6-2.5-20-7.4-28.2c-5.2-8.4-11.5-15-19.1-19.9c-7.7-5-20.2-10.4-37.6-16.1
			c-26.1-8.6-43.1-16-51.1-22.1c-8-6.2-11.9-15.9-11.9-29c0-15.1,6.1-27,18.3-35.6c12.2-8.4,29.5-12.5,51.9-12.5
			c15.2,0,33.9,2.6,55.9,8V34l0.4,7.6c0,4,0.1,8.8,0.4,14.3c0.4,6.8,0.6,12.7,0.6,17.9C429.1,77.2,428.9,81.5,428.7,86.5z"/>
		<path class="st0" d="M493.3,29h6.6v209.6h-13.1c-4.6,0-14.5,0.8-29.4,2.4v-3.6c7.2-1.9,12.6-5.2,16.3-10.1
			c3.8-5,6.4-10.8,7.8-17.3c1.5-6.9,2.2-21.5,2.2-43.8V82.9c0-19.2-2.6-32.4-7.8-39.6s-11.3-11.5-18.5-13.1v-3.6
			C465.4,27.2,477.4,28,493.3,29z M593.7,238.6h-79.5V29h57.9c10.9,0,31.4-0.8,61.7-2.4c-0.3,4-0.4,7-0.4,9c0,2.7,0.3,8.8,1,18.5
			c0.4,6.5,0.6,10,0.6,10.5v5h-3.4c-4.8-11.4-10.2-18.8-16.3-22.1c-6.1-3.2-17.6-4.8-34.4-4.8h-31.6c-5,0-9.7,0.3-13.9,1
			c-2.4,4.5-3.8,15.2-4.2,32.2l-0.4,13.5v32.4h43c16.2,0,26.9-1.4,32.2-4.2c5.3-2.8,9.5-9.4,12.7-19.9h4.4
			c-1.1,11.9-1.6,22.3-1.6,31c0,5.6,0.4,12.9,1.2,21.9c0.3,2.6,0.6,7.9,1,15.7h-4.4c-1.2-11.7-4.7-19.7-10.5-24.1
			c-6-4.4-15.3-6.6-28-6.6h-49.9v43.3c0,16.7,0.9,31.4,2.8,43.9c5.6,0.8,11.5,1.2,17.9,1.2h30.2c16.4,0,28.8-1.9,37.2-5.6
			c8.8-3.8,17.4-12.4,25.8-25.6h4c-1.5,6.1-3.7,13.1-6.6,21.1c-3.6,10.3-6.2,19.3-7.8,26.9C619.2,239.4,605.7,238.6,593.7,238.6z"/>
		<path class="st0" d="M708.3,29v209.6h-8.5c-3.3,0-8.5,0.4-15.7,1.2c-6.1,0.8-13.3,1.2-21.5,1.2v-3.6c8.5-0.9,15.5-5.1,21.1-12.5
			c5.6-7.4,8.3-21.7,8.3-43V79.8c0-28.9-9.8-45.4-29.4-49.5v-3.6C671,27.6,686.3,28.4,708.3,29z M728.6,238.6h-5.8V29
			c8,0,16.4-0.3,25.5-1c10.3-0.9,18.8-1.4,25.3-1.4c18.2,0,31.7,5.6,40.6,16.7c8.9,11,13.3,24.6,13.3,40.8c0,27.4-11.6,45-34.8,52.7
			c11.5,1.6,21.2,5,29,10.3c8.3,5.7,21,17.1,38,34.2c25.8,26.2,46.9,39.4,63.2,39.4c3.3,0,6.7-1.1,10.1-3.4l0.8,3.6
			c-5.3,6.9-12.7,10.3-22.1,10.3c-10.1,0-20.6-3.8-31.6-11.3c-10.3-7.2-25.8-21.2-46.3-42.2c-24.7-25.5-48.7-38.2-72-38.2
			c14.5,4.5,34,19.7,58.7,45.5c17.4,18,31.3,31.2,41.8,39.4c10.6,8.2,20.8,12.3,30.4,12.3v1.8c-4.5,1.6-9,2.4-13.3,2.4
			c-12.9,0-24-3.2-33.4-9.8c-5-3.6-11.4-9.1-19.2-16.4c-7.8-7.4-17.1-16.9-27.9-28.5c-15.9-17-27.7-28.5-35.4-34.6
			c-8.2-6.2-16.2-10.6-24.1-13.1v47.1c0,31.7,9.5,48.9,28.6,51.7v3.6C752,239.4,738.9,238.6,728.6,238.6z M739.3,83.7v43.2
			c7.8,2,16.3,3,25.5,3c29.8,0,44.7-15.5,44.7-46.5c0-29-14.8-43.5-44.3-43.5c-9.5,0-17,1.9-22.3,5.8
			C740.5,50.8,739.3,63.6,739.3,83.7z M829.4,126.7C838,113,842.3,98,842.3,81.6c0-15-5-30-14.9-45.1c22.8,9.7,34.2,24.9,34.2,45.7
			C861.6,103.2,850.9,118.1,829.4,126.7z"/>
		<path class="st0" d="M908.2,29l104.6,199.7l-7,14.3h-3.2L913.5,73.8c-13.3-25.5-27.5-40-42.8-43.5v-3.6L908.2,29z M970.6,84.9
			l49.5,93.7l46.3-97.2c6.5-13.5,9.7-23.7,9.7-30.4c0-10.5-5.2-17.4-15.5-20.7v-3.6c-0.3,0,3.4,0.3,11.1,1
			c10.2,0.9,18.2,1.4,24.1,1.4c4.6,0,14.5-0.8,29.6-2.4v3.6c-8.8,3.7-15.8,8.7-21.3,14.9c-5.6,6.4-12.8,19-21.7,37.8L1020.1,213
			L924.3,29c12.1,0,26.5-0.8,43.2-2.4v3.6c-7.7,2.1-11.5,6.9-11.5,14.3C955.9,52.6,960.8,66.1,970.6,84.9z"/>
		<path class="st0" d="M1184,29v209.6c-9.5,0-24.1,0.8-43.6,2.4v-3.6c10.2-2.6,17.3-8.4,21.3-17.3c4-8.8,6-24.6,6-47.5V83.7
			c0-17.2-2.1-29.9-6.2-38c-4.1-8-11.1-13.1-21.1-15.5v-3.6C1156.6,28,1171.1,28.8,1184,29z M1198.9,238.6V29
			c16.4,0,31-0.8,43.8-2.4v3.6c-7.8,1.5-14.3,5.7-19.5,12.7c-5.3,7.3-8,22.3-8,45.1V183c0,20.4,2.8,34.1,8.3,41.2
			s11.9,11.5,19.1,13.3v3.6C1230.2,239.4,1215.6,238.6,1198.9,238.6z"/>
		<path class="st0" d="M1301.9,57.1c-15.1,19.5-22.7,45.4-22.7,77.8c0,37.9,9.3,66.4,28,85.5c-14.2-6-25.5-16.8-33.8-32.4
			c-8.3-15.5-12.5-33-12.5-52.5c0-13.4,2.2-25.7,6.6-37c4.1-11.1,9-19.8,14.7-26.1C1287.5,66.4,1294.1,61.3,1301.9,57.1z
			 M1467.4,195.5h4l-6.4,33.6c-12.3,4.8-24.2,8.3-35.6,10.5s-22.4,3.4-33,3.4c-32.1,0-57.2-9.4-75.4-28
			c-18.2-18.6-27.2-45.5-27.2-80.9c0-35.3,9.7-62.2,29.2-80.9c19.4-18.6,44.9-27.8,76.8-27.8c23.1,0,46.4,4.2,70,12.5
			c-1.1,16.7-1.6,26.6-1.6,29.6c0,2.8,0.1,5.5,0.2,8.2v4.8c0,6.9-0.3,13.5-1,19.7h-3.4c-8.2-40-31.2-60.1-68.8-60.1
			c-25.5,0-45.7,8.3-60.8,24.9c-15.1,16.4-22.7,40.2-22.7,71.2c0,27.2,7,49.2,20.9,66.2c13.8,17,34.6,25.5,62.4,25.5
			c15.4,0,29.4-3.1,42.2-9.1C1449.7,212.7,1459.8,205,1467.4,195.5z"/>
		<path class="st0" d="M1523.7,29h6.6v209.6h-13.1c-4.6,0-14.4,0.8-29.4,2.4v-3.6c7.2-1.9,12.6-5.2,16.3-10.1
			c3.8-5,6.4-10.8,7.8-17.3c1.5-6.9,2.2-21.5,2.2-43.8V82.9c0-19.2-2.6-32.4-7.8-39.6s-11.3-11.5-18.5-13.1v-3.6
			C1495.8,27.2,1507.8,28,1523.7,29z M1624.1,238.6h-79.6V29h57.9c10.9,0,31.4-0.8,61.7-2.4c-0.3,4-0.4,7-0.4,9
			c0,2.7,0.3,8.8,1,18.5c0.4,6.5,0.6,10,0.6,10.5v5h-3.4c-4.8-11.4-10.2-18.8-16.3-22.1c-6.1-3.2-17.6-4.8-34.4-4.8h-31.6
			c-5,0-9.7,0.3-13.9,1c-2.4,4.5-3.8,15.2-4.2,32.2l-0.4,13.5v32.4h43c16.2,0,26.9-1.4,32.2-4.2c5.3-2.8,9.5-9.4,12.7-19.9h4.4
			c-1.1,11.9-1.6,22.3-1.6,31c0,5.6,0.4,12.9,1.2,21.9c0.3,2.6,0.6,7.9,1,15.7h-4.4c-1.2-11.7-4.7-19.7-10.5-24.1
			c-6-4.4-15.3-6.6-28-6.6H1561v43.3c0,16.7,0.9,31.4,2.8,43.9c5.6,0.8,11.5,1.2,17.9,1.2h30.2c16.4,0,28.8-1.9,37.2-5.6
			c8.8-3.8,17.4-12.4,25.8-25.6h4c-1.5,6.1-3.7,13.1-6.6,21.1c-3.6,10.3-6.2,19.3-7.8,26.9C1649.6,239.4,1636,238.6,1624.1,238.6z"
			/>
		<path class="st0" d="M1701.1,169.6h4.6c0.9,17,7.8,31,20.5,42c12.5,10.9,26.8,16.3,43,16.3c12.5,0,22.6-3.5,30.4-10.5
			c7.8-7,11.7-15.4,11.7-25.3c0-10.3-3.8-18.4-11.3-24.1c-7.3-5.6-21.7-11.9-43.2-18.9c-17.2-5.7-29.5-10.4-36.8-14.1
			c-8.5-4.4-15.1-10.3-19.9-17.7c-5.2-7.6-7.8-16-7.8-25.5c0-10.5,3.5-20.8,10.5-30.8c-1.6,5.2-2.4,9.7-2.4,13.5
			c0,10.3,2.4,19.4,7.4,27.2c5,8.1,11.3,14.2,18.7,18.3c7.4,4.2,19.8,9.1,37.2,14.5c22.7,6.9,39,14.5,49.1,22.9
			c9.7,8.1,14.5,19,14.5,32.6c0,13.4-5,25.5-15.1,36.4c-10.2,11-25.5,16.5-45.7,16.5c-8.2,0-19.6-1.5-34.2-4.6
			c-12.7-2.6-22.3-4-28.6-4.2l-1.4-1.6c0.1-2.2,0.2-5.2,0.2-8.8c0-4.2-0.4-10.8-1.2-19.7c-0.7-8.9-1-15.5-1-19.9
			C1700.3,178.7,1700.5,173.8,1701.1,169.6z M1841.5,86.5h-4.2c-0.1-15.4-6.2-26.8-18.3-34.2c-11.8-7.3-26.1-10.9-42.9-10.9
			c-13.4,0-24.4,2.8-33,8.5c-8.8,5.7-13.1,12.5-13.1,20.5c0,8.5,3.4,15.2,10.3,20.1c7.2,5.3,21.3,11.6,42.4,18.9
			c19.6,6.8,33.3,12.3,41.2,16.5c8.3,4.6,15.3,11.3,20.9,19.9c5.6,8.9,8.3,18.8,8.3,29.6c0,16.6-6.1,29.6-18.3,39
			c4.5-6.2,6.8-15,6.8-26.2c0-10.6-2.4-20-7.4-28.2c-5.2-8.4-11.5-15-19.1-19.9c-7.7-5-20.2-10.4-37.6-16.1
			c-26.1-8.6-43.2-16-51.1-22.1c-7.9-6.2-11.9-15.9-11.9-29c0-15.1,6.1-27,18.3-35.6c12.2-8.4,29.5-12.5,51.9-12.5
			c15.2,0,33.9,2.6,55.9,8V34l0.4,7.6c0,4,0.1,8.8,0.4,14.3c0.4,6.8,0.6,12.7,0.6,17.9C1841.9,77.2,1841.7,81.5,1841.5,86.5z"/>
	</g>
</g>
<path class="st0" d="M125,9C56,9,0,65,0,134s56,125,125,125s125-56,125-125S194,9,125,9z M118.8,239.5c-9.5,0.2-22.8,1-39.9,2.4
	v-2.1c10.3-2.7,17.4-10,21.4-18.9c4-8.8,6-24.7,6-47.8V83.6c0-17.3-2.1-30.1-6.2-38.2C96,37.4,89,30.6,79,28.2v-2.1
	c14.6,1.2,27.9,2,39.9,2.3c2.2,0.1,3.9,1.9,3.9,4v203C122.8,237.7,121,239.5,118.8,239.5z M171.1,241.8c-11.5-1.5-24.9-2.3-40-2.4
	c-2.2,0-4-1.8-4-4V32.6c0-2.2,1.8-4,4-4c14.9-0.1,28.2-0.9,40-2.4v2.1c-7.9,1.5-14.4,7.3-19.6,14.3c-5.3,7.3-8,22.5-8,45.4v95.4
	c0,20.5,2.8,34.4,8.4,41.4c5.6,7.1,12,13.1,19.2,14.9V241.8z"/>
</svg>
