<svg id="f73687b5-ce9e-4d3f-ac61-9e7cdba561e0" data-name="Layer 2" xmlns="http://www.w3.org/2000/svg" xmlns:xlink="http://www.w3.org/1999/xlink" viewBox="0 0 614.09 770.09"><defs><style>.b4ab14d7-dd8d-4ae4-8c89-c5cbbb5fb277{fill:#535461;}.aa1e2801-a02e-4d2e-a171-b0f00d88876a,.f9d96d69-8d1c-4219-9532-c450eb1ab5fb{opacity:0.1;}.f5b0b691-4148-4959-a966-edd07c992c03{fill:url(#e0a089aa-068c-48d1-aca3-07e59758c2fa);}.b47a8fd7-9778-49a1-9ce3-ca25d3adbe0f{opacity:0.7;}.e00ce88c-7aed-4181-9379-25be5fb9d1a8{fill:url(#ae126b61-cca1-4658-b51e-0a990bf2c3d1);}.e924586f-ec8c-4f43-9ef8-407f58e6ed2c{fill:url(#fb6d376f-d2f5-4362-9357-39a921e85847);}.a8a33c4e-e08f-419b-ac0e-b1976ea7a80d{fill:url(#b499a764-fbf4-411a-847d-af3df5dcc3fc);}.adc31ce7-cfba-4e59-ac8c-cb453557ba1d{fill:url(#b273309a-71ee-49d4-aaf6-8a074e9506a1);}.e8e5affc-7945-4dc3-80bd-5a6c3ca68bdf{fill:url(#ab365b24-cca0-4844-a14b-cd2ec9141dda);}.b231d98a-706a-4d0b-9499-1b4655ee6dcf{fill:url(#b21fb242-2044-4390-a977-16f8846919ff);}.ff1d173b-9120-4b5a-979b-d4be1cc2e096{fill:url(#a7f61214-9c31-4936-92ee-c437f3772cb1);}.a1c3f6f6-b8d4-401d-9b38-32023926c803{fill:url(#ab1ade4b-0377-433e-9478-400369b31898);}.e2d9f4b0-4c66-4b94-9ba0-ad58048cf401{fill:url(#ea5c5ce2-77a9-4ca4-98a3-2adeb76845c7);}.b3291eb0-08d6-459a-82dd-ef97db1fdca4{fill:url(#ab5d641a-cc8e-4654-812d-8378fb9ba994);}.ade646ee-9ee8-478f-a93e-f1476abe576d{fill:#afc0e0;}.ea7bba80-a54d-485b-85a9-ada39c5fe245{fill:#fff;opacity:0.2;}.ea7bba80-a54d-485b-85a9-ada39c5fe245,.f9d96d69-8d1c-4219-9532-c450eb1ab5fb{isolation:isolate;}.e4a18466-c309-406a-a839-e23f9a3dc621{fill:#e3e8f4;}.a343793c-6cf7-4460-9169-710729aa2bda{fill:#4897ba;}</style><linearGradient id="e0a089aa-068c-48d1-aca3-07e59758c2fa" x1="307.04" y1="155.1" x2="307.04" y2="92.48" gradientTransform="matrix(1, 0, 0, -1, 0, 770)" gradientUnits="userSpaceOnUse"><stop offset="0" stop-color="#e0e0e0"/><stop offset="0.31" stop-color="#fccc63"/><stop offset="0.77" stop-color="#f55f44"/></linearGradient><linearGradient id="ae126b61-cca1-4658-b51e-0a990bf2c3d1" x1="444.45" y1="-65.04" x2="444.45" y2="122.19" gradientTransform="matrix(1, 0, 0, -1, -137.41, 705.05)" gradientUnits="userSpaceOnUse"><stop offset="0" stop-color="gray" stop-opacity="0.25"/><stop offset="0.54" stop-color="gray" stop-opacity="0.12"/><stop offset="1" stop-color="gray" stop-opacity="0.1"/></linearGradient><linearGradient id="fb6d376f-d2f5-4362-9357-39a921e85847" x1="136.62" y1="183.44" x2="136.62" y2="37.78" gradientTransform="matrix(1, 0, 0, -1, 0, 770)" gradientUnits="userSpaceOnUse"><stop offset="0" stop-color="#f2f2f2"/><stop offset="0.31" stop-color="#e6e6e6"/><stop offset="0.77" stop-color="#ccc"/></linearGradient><linearGradient id="b499a764-fbf4-411a-847d-af3df5dcc3fc" x1="136.26" y1="163.05" x2="136.26" y2="3.55" xlink:href="#fb6d376f-d2f5-4362-9357-39a921e85847"/><linearGradient id="b273309a-71ee-49d4-aaf6-8a074e9506a1" x1="460.36" y1="163.05" x2="460.36" y2="3.55" xlink:href="#fb6d376f-d2f5-4362-9357-39a921e85847"/><linearGradient id="ab365b24-cca0-4844-a14b-cd2ec9141dda" x1="456.35" y1="149.21" x2="456.35" y2="3.55" xlink:href="#fb6d376f-d2f5-4362-9357-39a921e85847"/><linearGradient id="b21fb242-2044-4390-a977-16f8846919ff" x1="438.59" y1="70.51" x2="438.59" y2="-61.41" gradientTransform="matrix(1, 0, 0, -1, -137.41, 705.05)" xlink:href="#fb6d376f-d2f5-4362-9357-39a921e85847"/><linearGradient id="a7f61214-9c31-4936-92ee-c437f3772cb1" x1="346.12" y1="32.55" x2="346.12" y2="-61.4" gradientTransform="matrix(1, 0, 0, -1, -137.41, 705.05)" xlink:href="#fb6d376f-d2f5-4362-9357-39a921e85847"/><linearGradient id="ab1ade4b-0377-433e-9478-400369b31898" x1="528.94" y1="17.96" x2="528.94" y2="-61.41" gradientTransform="matrix(1, 0, 0, -1, -137.41, 705.05)" xlink:href="#fb6d376f-d2f5-4362-9357-39a921e85847"/><linearGradient id="ea5c5ce2-77a9-4ca4-98a3-2adeb76845c7" x1="666.61" y1="32.54" x2="666.61" y2="-61.4" gradientTransform="matrix(1, 0, 0, -1, -137.41, 705.05)" xlink:href="#fb6d376f-d2f5-4362-9357-39a921e85847"/><linearGradient id="ab5d641a-cc8e-4654-812d-8378fb9ba994" x1="222.34" y1="32.58" x2="222.34" y2="-61.41" gradientTransform="matrix(1, 0, 0, -1, -137.41, 705.05)" xlink:href="#fb6d376f-d2f5-4362-9357-39a921e85847"/></defs><polygon class="b4ab14d7-dd8d-4ae4-8c89-c5cbbb5fb277" points="318.58 614.9 295.5 614.9 299.62 586.89 314.46 586.89 318.58 614.9"/><g class="aa1e2801-a02e-4d2e-a171-b0f00d88876a"><polygon points="298.47 598.01 315.61 598.01 314.46 590.18 299.62 590.18 298.47 598.01"/></g><polygon class="f5b0b691-4148-4959-a966-edd07c992c03" points="295.5 614.9 318.57 614.9 358.57 677.52 255.5 677.52 295.5 614.9"/><g class="b47a8fd7-9778-49a1-9ce3-ca25d3adbe0f"><path class="e00ce88c-7aed-4181-9379-25be5fb9d1a8" d="M548.5,673h0a83,83,0,0,0-164.88,14.07v1.22h0a76.34,76.34,0,0,0-9.1,2,75.84,75.84,0,0,0-142.6-12.91A74.91,74.91,0,0,0,211,672.57h0a82.71,82.71,0,0,0-5.71-18.85,75.8,75.8,0,0,0-151.12-2,82.2,82.2,0,0,0-7.42,26.37h0a75.87,75.87,0,0,0-43.49,92H610.84a75.87,75.87,0,0,0-50.72-94.54A76.9,76.9,0,0,0,548.5,673Z"/></g><circle class="e924586f-ec8c-4f43-9ef8-407f58e6ed2c" cx="136.62" cy="659.39" r="72.83"/><circle class="a8a33c4e-e08f-419b-ac0e-b1976ea7a80d" cx="136.26" cy="686.7" r="79.75"/><circle class="adc31ce7-cfba-4e59-ac8c-cb453557ba1d" cx="460.36" cy="686.7" r="79.75"/><circle class="e8e5affc-7945-4dc3-80bd-5a6c3ca68bdf" cx="456.35" cy="693.62" r="72.83"/><path class="b231d98a-706a-4d0b-9499-1b4655ee6dcf" d="M374.05,707.46a72.73,72.73,0,0,1-30.12,59H258.5a72.86,72.86,0,1,1,115.54-59Z"/><path class="ff1d173b-9120-4b5a-979b-d4be1cc2e096" d="M281.56,745.33a73,73,0,0,1-3.12,21.12H139m0-.05a72.82,72.82,0,0,1,69.28-93.9h.45q3.06,0,6.07.25a72.74,72.74,0,0,1,66.75,72.58Z"/><path class="a1c3f6f6-b8d4-401d-9b38-32023926c803" d="M464.37,759.9q0,3.27-.29,6.47v.09H319c-.2-2.16-.3-4.35-.3-6.55a72.82,72.82,0,0,1,72.8-72.82c1.86,0,3.71.07,5.54.2A72.9,72.9,0,0,1,457.94,730c.3.66.59,1.33.86,2A72.62,72.62,0,0,1,464.37,759.9Z"/><path class="e2d9f4b0-4c66-4b94-9ba0-ad58048cf401" d="M602,745.33a73,73,0,0,1-3.12,21.12H459.5a73.18,73.18,0,0,1-1.87-34.54c.12-.63.24-1.27.38-1.89a72.85,72.85,0,0,1,71.22-57.51c2.29,0,4.54.1,6.77.32,1,.08,2,.2,3,.33A72.85,72.85,0,0,1,602,745.33Z"/><path class="b3291eb0-08d6-459a-82dd-ef97db1fdca4" d="M154.63,766.46c.24-.76.45-1.52.66-2.29A72.88,72.88,0,0,0,65.5,675.09,69,69,0,0,0,57,678a72.89,72.89,0,0,0-41.78,88.4H154.63Z"/><path class="ade646ee-9ee8-478f-a93e-f1476abe576d" d="M237.93,500.69a31.46,31.46,0,0,0-6.3,1.8C186.25,520.6,187,639.2,187,639.2H173.65s-4.2-50.89-22.53-123.51c-16.51-65.33,51.21-123.88,65-135,1.55-1.24,2.41-1.89,2.41-1.89C286.69,403.88,237.93,500.69,237.93,500.69Z"/><path class="ea7bba80-a54d-485b-85a9-ada39c5fe245" d="M223.45,380.88c-1.57-.73-3.2-1.42-4.92-2.05l-2.41,1.89c-13.75,11.11-81.47,69.66-65,135,18.33,72.61,22.49,123.49,22.49,123.49h7.52S177,588.31,158.63,515.69C142.19,450.66,209.25,392.33,223.45,380.88Z"/><path class="ade646ee-9ee8-478f-a93e-f1476abe576d" d="M463,515.71C444.6,588.32,440.46,639.2,440.46,639.2H427.08s.84-124-47.72-137.78a25.18,25.18,0,0,0-3.2-.75s-48.79-96.81,19.44-121.85c0,0,.69.51,1.94,1.51C410.18,390.45,479.67,449.62,463,515.71Z"/><path class="f9d96d69-8d1c-4219-9532-c450eb1ab5fb" d="M237.93,500.69a31.46,31.46,0,0,0-6.3,1.8,823.45,823.45,0,0,1-15.55-121.77c1.55-1.23,2.41-1.89,2.41-1.89C286.69,403.88,237.93,500.69,237.93,500.69Z"/><path class="f9d96d69-8d1c-4219-9532-c450eb1ab5fb" d="M397.56,380.35a758.64,758.64,0,0,1-18.17,121.12,25.74,25.74,0,0,0-3.21-.75s-48.78-96.81,19.45-121.85C395.6,378.83,396.29,379.35,397.56,380.35Z"/><path class="e4a18466-c309-406a-a839-e23f9a3dc621" d="M372.59,519q-7.06,27.87-16.56,57.2c-9.5,29.32-30,31.3-102.62,0,0,0-7.25-20.44-15.22-55.19-17.56-76.4-38.61-222,6.25-371.54a556.34,556.34,0,0,1,56.5-128.23s38.32,44,66.45,128.21S413.42,358.15,372.59,519Z"/><circle class="ade646ee-9ee8-478f-a93e-f1476abe576d" cx="307.04" cy="268.23" r="60.25"/><path class="a343793c-6cf7-4460-9169-710729aa2bda" d="M349.77,268.27A42.71,42.71,0,0,1,272,292.62a40.26,40.26,0,0,1-2.76-4.53,42.65,42.65,0,0,1-4.87-19.82v-1a42.78,42.78,0,0,1,31.12-40.14,44.34,44.34,0,0,1,10.3-1.57H307a42.74,42.74,0,0,1,42.75,42.71Z"/><path class="ade646ee-9ee8-478f-a93e-f1476abe576d" d="M367.38,149.49c-68.36,32.73-123,0-123,0A557,557,0,0,1,300.94,21.28S339.26,65.28,367.38,149.49Z"/><path class="ade646ee-9ee8-478f-a93e-f1476abe576d" d="M372.59,519q-4.8,18.87-10.68,38.4-2.79,9.31-5.89,18.77c-3.1,9.46-30,31.3-102.62,0,0,0-2.35-6.63-5.89-18.77-2.64-9.17-5.93-21.46-9.36-36.41,0,0,27,11.53,65.37,11.53A180.18,180.18,0,0,0,372.59,519Z"/><path class="e4a18466-c309-406a-a839-e23f9a3dc621" d="M361.91,557.44q-2.79,9.31-5.89,18.77c-3.1,9.46-30,31.3-102.62,0,0,0-2.35-6.64-5.89-18.77C247.51,557.44,321.47,578.72,361.91,557.44Z"/><path class="ea7bba80-a54d-485b-85a9-ada39c5fe245" d="M295.47,227.05l-.1.07-31,40.07v1A42.5,42.5,0,0,0,269.21,288l36.57-62.54Z"/><path class="ea7bba80-a54d-485b-85a9-ada39c5fe245" d="M305.38,263.22,280,301.28a43.19,43.19,0,0,1-8-8.69l30.28-32.5Z"/><path class="ea7bba80-a54d-485b-85a9-ada39c5fe245" d="M269.64,576.22s-7.25-20.45-15.22-55.19c-17.55-76.4-38.61-222,6.25-371.54a558.58,558.58,0,0,1,49.5-116.15c-5.69-8-9.25-12.06-9.25-12.06a556.72,556.72,0,0,0-56.53,128.21C199.54,299,220.59,444.63,238.14,521c8,34.74,15.23,55.19,15.23,55.19,28.67,12.36,50.7,14.95,66.87,13.57C306.43,588.74,289.65,584.84,269.64,576.22Z"/></svg>