<?xml version="1.0" standalone="no"?>
<!DOCTYPE svg PUBLIC "-//W3C//DTD SVG 20010904//EN"
 "http://www.w3.org/TR/2001/REC-SVG-20010904/DTD/svg10.dtd">
<svg version="1.0" xmlns="http://www.w3.org/2000/svg"
 width="700.000000pt" height="700.000000pt" viewBox="0 0 700.000000 700.000000"
 preserveAspectRatio="xMidYMid meet">
<metadata>
Created by potrace 1.14, written by Peter Selinger 2001-2017
</metadata>
<g transform="translate(0.000000,700.000000) scale(0.100000,-0.100000)"
fill="#000000" stroke="none">
<path d="M3320 6914 c-989 -59 -1885 -523 -2499 -1294 -394 -494 -639 -1089
-717 -1740 -35 -295 -20 -708 37 -1010 246 -1299 1219 -2342 2494 -2675 305
-80 530 -108 865 -108 335 0 560 28 865 108 1275 333 2248 1377 2494 2675 74
394 74 866 0 1260 -166 877 -669 1656 -1397 2167 -467 328 -1007 532 -1575
598 -131 15 -452 26 -567 19z m-642 -498 c213 -14 671 -36 740 -36 l22 0 0
-2878 0 -2879 -192 -7 c-197 -7 -544 -27 -836 -49 -90 -7 -165 -10 -168 -8 -2
2 -4 23 -4 46 l0 42 66 22 c234 77 407 225 510 436 85 175 141 472 164 869 14
239 13 3065 0 3246 -20 266 -66 491 -130 640 -93 221 -274 383 -511 461 l-99
32 0 42 c0 23 2 44 5 46 2 3 45 1 95 -3 50 -4 202 -14 338 -22z m2082 -20 l0
-43 -67 -18 c-96 -26 -226 -94 -305 -160 -230 -189 -318 -416 -370 -950 -19
-190 -19 -3306 0 -3485 35 -335 93 -544 193 -692 54 -80 186 -212 264 -265 73
-49 163 -95 233 -117 l52 -18 0 -45 0 -46 -67 6 c-38 3 -144 13 -238 21 -195
18 -593 36 -772 36 l-123 0 0 2878 0 2879 263 7 c287 7 527 21 718 41 68 7
145 13 172 14 l47 1 0 -44z"/>
</g>
</svg>
