<svg id="b11599e5-760b-4926-8dd1-900dcfe314cf" data-name="Layer 1" xmlns="http://www.w3.org/2000/svg" viewBox="0 0 1853 268"><defs><style>.b0fbcc45-3f58-4992-8720-b032f5bd75be{fill:#476dae;}.e589b150-ca1d-468f-9737-205da1a99300{fill:none;}</style></defs><path class="b0fbcc45-3f58-4992-8720-b032f5bd75be" d="M253.34,134A124.23,124.23,0,0,0,129.14,9.77h-.06A124.23,124.23,0,1,0,253.34,134ZM121.55,238.8q-14.33,0-43.55,2.39v-3.58q15.31-4,21.28-17.3,6-13.12,6-47.53V83.89q0-25.85-6.16-38Q92.91,34,78,30.39V26.81q24.25,2,43.55,2.39ZM180.22,30.39q-11.73,2.19-19.49,12.73-7.95,10.93-7.95,45.14v94.86q0,30.63,8.35,41.16t19.09,13.32v3.58a350.39,350.39,0,0,0-43.75-2.39V29.2a356.47,356.47,0,0,0,43.75-2.39Z"/><path class="e589b150-ca1d-468f-9737-205da1a99300" d="M78,30.39Q92.91,34,99.08,45.9q6.17,12.14,6.16,38v88.89q0,34.41-6,47.53-6,13.32-21.28,17.3v3.58q29.24-2.38,43.55-2.39V29.2Q102.25,28.81,78,26.81v3.58Z"/><path class="e589b150-ca1d-468f-9737-205da1a99300" d="M136.47,238.8a350.39,350.39,0,0,1,43.75,2.39v-3.58q-10.74-2.78-19.09-13.32t-8.35-41.16V88.26q0-34.2,7.95-45.14,7.76-10.54,19.49-12.73V26.81a356.47,356.47,0,0,1-43.75,2.39Z"/><path class="b0fbcc45-3f58-4992-8720-b032f5bd75be" d="M284.4,169.64H289q1.39,25.46,20.48,42,18.69,16.31,42.95,16.31,18.69,0,30.43-10.54t11.73-25.26q0-15.51-11.34-24.06-10.94-8.36-43.15-18.89-25.86-8.55-36.79-14.12a50.67,50.67,0,0,1-19.89-17.7,44.06,44.06,0,0,1-7.76-25.46q0-15.7,10.54-30.82a47,47,0,0,0-2.39,13.52q0,15.51,7.36,27.24a51.38,51.38,0,0,0,18.69,18.3Q321,126.48,347,134.64q34,10.35,49.12,22.87,14.52,12.13,14.52,32.61,0,20.08-15.11,36.39Q380.23,243,349.81,243q-12.33,0-34.21-4.57-19.1-4-28.64-4.18l-1.39-1.59q.19-3.37.2-8.75,0-6.36-1.19-19.69-1-13.32-1-19.89A118.74,118.74,0,0,1,284.4,169.64ZM424.8,86.51h-4.18q-.19-23.07-18.3-34.21-17.7-10.94-42.95-10.94-20.08,0-33,8.55-13.12,8.55-13.12,20.48a23.37,23.37,0,0,0,10.34,20.09q10.74,8,42.36,18.89,29.43,10.14,41.17,16.51A58.64,58.64,0,0,1,428,145.77a54.63,54.63,0,0,1,8.35,29.63q0,24.85-18.3,39,6.76-9.34,6.76-26.25a54.08,54.08,0,0,0-7.36-28.24A62.44,62.44,0,0,0,398.35,140q-11.53-7.56-37.59-16.11Q321.58,111,309.65,101.82q-11.92-9.34-11.93-29,0-22.67,18.3-35.6,18.3-12.52,51.9-12.53,22.86,0,55.88,8V34l.4,7.56q0,6,.4,14.32.6,10.14.6,17.9Q425.19,79,424.8,86.51Z"/><path class="b0fbcc45-3f58-4992-8720-b032f5bd75be" d="M489.43,29H496v209.6H482.88q-7,0-29.43,2.39v-3.58q10.74-2.77,16.31-10.14a42,42,0,0,0,7.76-17.3q2.19-10.33,2.19-43.75V82.93q0-28.83-7.76-39.57T453.46,30.24V26.66ZM589.86,238.65H510.31V29h57.87q16.3,0,61.65-2.39-.41,6-.4,9,0,4,1,18.49.6,9.75.6,10.54v5h-3.38q-7.15-17.1-16.31-22.07-9.15-4.77-34.4-4.77H545.31a90.77,90.77,0,0,0-13.92,1q-3.58,6.77-4.18,32.22l-.4,13.52V121.9h43q24.25,0,32.22-4.18t12.73-19.89h4.38q-1.59,17.9-1.59,31,0,8.35,1.19,21.88c.26,2.65.6,7.89,1,15.71H615.3q-1.78-17.5-10.54-24.06-9-6.57-28-6.56H526.8v43.35a305.87,305.87,0,0,0,2.78,44,126.05,126.05,0,0,0,17.9,1.19h30.23q24.66,0,37.19-5.57Q628,213,640.75,193.09h4a194.37,194.37,0,0,1-6.56,21.08A226.93,226.93,0,0,0,630.41,241,393.68,393.68,0,0,0,589.86,238.65Z"/><path class="b0fbcc45-3f58-4992-8720-b032f5bd75be" d="M704.42,29v209.6h-8.55q-5,0-15.71,1.19A169.55,169.55,0,0,1,658.68,241v-3.58q12.72-1.4,21.08-12.53t8.35-43V79.75q0-43.35-29.43-49.52V26.65Q671.4,28.06,704.42,29ZM724.7,238.65h-5.77V29q11.93,0,25.46-1,15.51-1.39,25.26-1.39,27.24,0,40.57,16.71,13.32,16.52,13.32,40.77,0,41.16-34.8,52.7,17.29,2.39,29,10.34,12.53,8.55,38,34.21,38.78,39.38,63.24,39.38a18.47,18.47,0,0,0,10.14-3.38l.8,3.58q-7.95,10.35-22.07,10.34-15.12,0-31.62-11.33-15.51-10.74-46.34-42.16-37-38.19-72-38.18,21.68,6.77,58.67,45.54,26.05,27,41.76,39.38,15.92,12.33,30.43,12.33v1.79a39.9,39.9,0,0,1-13.32,2.39q-19.29,0-33.41-9.75a188,188,0,0,1-19.19-16.41q-11.64-11-27.94-28.54-23.86-25.45-35.4-34.6-12.33-9.35-24.06-13.12v47.13q0,47.54,28.64,51.71v3.58Q740.21,238.63,724.7,238.65ZM735.44,83.73v43.15a103,103,0,0,0,25.45,3q44.75,0,44.74-46.53,0-43.54-44.35-43.55Q747,39.78,739,45.55,735.44,53.5,735.44,83.73Zm90.08,43a82.86,82.86,0,0,0,12.93-45.14q0-22.47-14.92-45.14,34.2,14.52,34.2,45.74Q857.75,113.76,825.52,126.69Z"/><path class="b0fbcc45-3f58-4992-8720-b032f5bd75be" d="M904.28,29l104.6,199.66-7,14.32h-3.18L909.65,73.79q-19.89-38.18-42.76-43.55V26.66Zm62.45,55.88,49.52,93.67,46.34-97.25q9.73-20.28,9.74-30.43,0-15.7-15.51-20.68V26.65q-.4,0,11.14,1Q1083.28,29,1092,29q7,0,29.63-2.39v3.58a57.45,57.45,0,0,0-21.28,14.91q-8.36,9.54-21.68,37.78L1016.25,213,920.39,29q18.09,0,43.15-2.39v3.58Q952,33.41,952,44.55,952,56.69,966.73,84.92Z"/><path class="b0fbcc45-3f58-4992-8720-b032f5bd75be" d="M1180.12,29v209.6q-14.31,0-43.55,2.39v-3.58q15.32-4,21.28-17.3,6-13.12,6-47.53V83.73q0-25.85-6.17-38-6.17-11.93-21.08-15.51V26.66Q1160.83,28.64,1180.12,29ZM1195,238.65V29a356.47,356.47,0,0,0,43.75-2.39v3.58q-11.73,2.19-19.49,12.73-7.95,10.93-8,45.14V183q0,30.63,8.35,41.17t19.09,13.32V241A350.17,350.17,0,0,0,1195,238.65Z"/><path class="b0fbcc45-3f58-4992-8720-b032f5bd75be" d="M1298.05,57.08q-22.66,29.24-22.67,77.76,0,56.88,28,85.51-21.29-9-33.81-32.42-12.52-23.27-12.53-52.5a101.48,101.48,0,0,1,6.56-37q6.16-16.71,14.72-26A72.22,72.22,0,0,1,1298.05,57.08Zm165.46,138.41h4l-6.36,33.61a213.66,213.66,0,0,1-35.6,10.54,170.49,170.49,0,0,1-33,3.38q-48.13,0-75.37-28-27.26-27.84-27.24-80.94,0-52.89,29.23-80.94,29-27.84,76.76-27.84,34.61,0,70,12.53-1.59,25.05-1.59,29.63,0,4.17.2,8.15v4.77a187,187,0,0,1-1,19.69h-3.38Q1447.81,40,1391.33,40q-38.19,0-60.85,24.86-22.67,24.66-22.67,71.19,0,40.77,20.88,66.22,20.68,25.45,62.44,25.46a96.28,96.28,0,0,0,42.16-9.15Q1452.16,209.82,1463.51,195.49Z"/><path class="b0fbcc45-3f58-4992-8720-b032f5bd75be" d="M1519.79,29h6.56v209.6h-13.12q-7,0-29.43,2.39v-3.58q10.74-2.77,16.31-10.14a42,42,0,0,0,7.76-17.3q2.19-10.33,2.19-43.75V82.93q0-28.83-7.76-39.57t-18.49-13.12V26.66Zm100.43,209.61h-79.55V29h57.87q16.31,0,61.65-2.39-.4,6-.4,9,0,4,1,18.49.6,9.75.6,10.54v5H1658q-7.15-17.1-16.31-22.07-9.15-4.77-34.4-4.77h-31.62a90.77,90.77,0,0,0-13.92,1q-3.59,6.77-4.18,32.22l-.4,13.52V121.9h43q24.25,0,32.22-4.18t12.73-19.89h4.38q-1.59,17.9-1.59,31,0,8.35,1.19,21.88.39,4,1,15.71h-4.38q-1.79-17.5-10.54-24.06-9-6.57-28-6.56h-49.92v43.35a305.87,305.87,0,0,0,2.78,44,126.05,126.05,0,0,0,17.9,1.19h30.23q24.66,0,37.19-5.57,13.13-5.76,25.85-25.65h4a194.37,194.37,0,0,1-6.56,21.08,226.93,226.93,0,0,0-7.76,26.85A394.35,394.35,0,0,0,1620.22,238.65Z"/><path class="b0fbcc45-3f58-4992-8720-b032f5bd75be" d="M1697.19,169.64h4.57q1.4,25.46,20.48,42,18.69,16.31,43,16.31,18.69,0,30.43-10.54t11.73-25.26q0-15.51-11.33-24.06-10.93-8.36-43.15-18.89Q1727,140.61,1716.09,135a50.67,50.67,0,0,1-19.89-17.7,44.06,44.06,0,0,1-7.76-25.46q0-15.7,10.54-30.82a47,47,0,0,0-2.39,13.52q0,15.51,7.36,27.24a51.38,51.38,0,0,0,18.69,18.3q11.13,6.36,37.19,14.52,34,10.35,49.12,22.87,14.52,12.13,14.52,32.61,0,20.08-15.11,36.39Q1793,243,1762.62,243q-12.33,0-34.21-4.57-19.1-4-28.64-4.18l-1.39-1.59q.19-3.37.2-8.75,0-6.36-1.19-19.69-1-13.32-1-19.89A115.33,115.33,0,0,1,1697.19,169.64Zm140.4-83.13h-4.18q-.2-23.07-18.3-34.21-17.7-10.94-42.95-10.94-20.09,0-33,8.55Q1726,58.46,1726,70.39a23.37,23.37,0,0,0,10.34,20.09q10.74,8,42.36,18.89,29.43,10.14,41.17,16.51a58.64,58.64,0,0,1,20.88,19.89,54.63,54.63,0,0,1,8.35,29.63q0,24.85-18.29,39,6.75-9.34,6.76-26.25,0-15.91-7.36-28.24A62.44,62.44,0,0,0,1811.15,140q-11.54-7.56-37.58-16.11-39.18-12.93-51.11-22.07-11.93-9.34-11.93-29,0-22.67,18.3-35.6,18.3-12.52,51.9-12.53,22.86,0,55.88,8V34l.4,7.56q0,6,.4,14.32.6,10.14.6,17.9Q1838,79,1837.59,86.51Z"/></svg>