<svg id="b3e935fc-2e90-4396-9bb7-947ac757299f" data-name="61f8f3fd-6b56-45c5-89f2-afa0c413a7fa" xmlns="http://www.w3.org/2000/svg" xmlns:xlink="http://www.w3.org/1999/xlink" viewBox="0 0 925.18 770.09"><defs><style>.b923146a-c51b-4847-bfe9-03bfed893846{opacity:0.7;}.f235cc7a-5520-4fa3-9d03-eed7b1463fa7{fill:url(#a2bad629-d9bb-459b-97bd-dd9e8433aaac);}.b84997a1-8d68-4d14-b232-7b1cff8a1272{fill:url(#e22293e8-02ad-424d-813b-bd0eb268ec61);}.fe704a96-7642-40f3-9a40-cbb659f8c126{fill:url(#a713bfac-c21f-4eda-936f-fcd5c9438311);}.bd86e641-164f-4d7c-b1c1-044cc6592dec{fill:url(#bb9099f9-e64a-46a4-b4be-da753a0bf287);}.a57b6543-5953-4a51-a645-4e190fda579c{fill:url(#fd9dc33a-1e88-4764-a598-7330bbf2ab4e);}.b81abbf9-4783-4f7b-b281-c97a5136bedc{fill:url(#bc04d285-5d41-4632-85e0-f94bb1829c28);}.fdf454bd-1b19-4a65-8cfc-dc3300e7d3ec{opacity:0.4;}.e13029e8-f53f-4412-9bab-52055a758597{fill:url(#e7617c5e-0f72-4343-9f7c-934a2193646b);}.ab7cdef5-877f-420a-a996-6b18567333a7{fill:#4897ba;opacity:0.2;}.aa482a47-ce38-4852-a7a2-2f283698fd30,.ab7cdef5-877f-420a-a996-6b18567333a7,.e04bb3cf-622c-4fda-be36-d1e026bc5d34,.ea2634b3-5ac3-4c13-827a-3ae457ad0d04{isolation:isolate;}.e04bb3cf-622c-4fda-be36-d1e026bc5d34,.ea2634b3-5ac3-4c13-827a-3ae457ad0d04{fill:#f55f44;}.e04bb3cf-622c-4fda-be36-d1e026bc5d34{opacity:0.05;}.aa482a47-ce38-4852-a7a2-2f283698fd30{fill:#535461;opacity:0.25;}.a78a43f5-190e-4d35-bbae-7a4c657d395b{fill:url(#b82021d9-91ce-4980-b054-6eef0acc0307);}.a931758a-3e97-4869-902e-52091b5504fd{fill:url(#e252e852-1987-4c31-9d2b-f5d61bb3ddaf);}.ea2634b3-5ac3-4c13-827a-3ae457ad0d04{opacity:0.1;}</style><linearGradient id="a2bad629-d9bb-459b-97bd-dd9e8433aaac" x1="640.43" y1="143.37" x2="640.43" y2="170.09" gradientTransform="matrix(1, 0, 0, -1, 0, 770)" gradientUnits="userSpaceOnUse"><stop offset="0" stop-color="gray" stop-opacity="0.25"/><stop offset="0.54" stop-color="gray" stop-opacity="0.12"/><stop offset="1" stop-color="gray" stop-opacity="0.1"/></linearGradient><linearGradient id="e22293e8-02ad-424d-813b-bd0eb268ec61" x1="640.43" y1="169.11" x2="640.43" y2="144.35" gradientTransform="matrix(1, 0, 0, -1, 0, 770)" gradientUnits="userSpaceOnUse"><stop offset="0" stop-color="#f2f2f2"/><stop offset="0.31" stop-color="#e6e6e6"/><stop offset="0.77" stop-color="#ccc"/></linearGradient><linearGradient id="a713bfac-c21f-4eda-936f-fcd5c9438311" x1="701.61" y1="13.25" x2="701.61" y2="42.39" xlink:href="#a2bad629-d9bb-459b-97bd-dd9e8433aaac"/><linearGradient id="bb9099f9-e64a-46a4-b4be-da753a0bf287" x1="701.61" y1="41.66" x2="701.61" y2="13.98" gradientTransform="matrix(1, 0, 0, -1, 0, 770)" gradientUnits="userSpaceOnUse"><stop offset="0" stop-color="#f2f2f2"/><stop offset="0.31" stop-color="#e0e0e0"/><stop offset="0.77" stop-color="#b3b3b3"/></linearGradient><linearGradient id="fd9dc33a-1e88-4764-a598-7330bbf2ab4e" x1="238.17" y1="104.84" x2="238.17" y2="136.86" xlink:href="#a2bad629-d9bb-459b-97bd-dd9e8433aaac"/><linearGradient id="bc04d285-5d41-4632-85e0-f94bb1829c28" x1="238.17" y1="136.14" x2="238.17" y2="105.56" xlink:href="#e22293e8-02ad-424d-813b-bd0eb268ec61"/><linearGradient id="e7617c5e-0f72-4343-9f7c-934a2193646b" x1="783.71" y1="607.16" x2="783.71" y2="695.01" gradientTransform="matrix(1, 0, 0, -1, -137.41, 705.05)" xlink:href="#a2bad629-d9bb-459b-97bd-dd9e8433aaac"/><linearGradient id="b82021d9-91ce-4980-b054-6eef0acc0307" x1="701.61" y1="41.66" x2="701.61" y2="13.98" xlink:href="#e22293e8-02ad-424d-813b-bd0eb268ec61"/><linearGradient id="e252e852-1987-4c31-9d2b-f5d61bb3ddaf" x1="449.64" y1="363.25" x2="449.64" y2="405.09" gradientTransform="matrix(1, 0, 0, -1, -137.41, 705.05)" xlink:href="#a2bad629-d9bb-459b-97bd-dd9e8433aaac"/></defs><g class="b923146a-c51b-4847-bfe9-03bfed893846"><circle class="f235cc7a-5520-4fa3-9d03-eed7b1463fa7" cx="640.43" cy="613.27" r="13.36"/></g><circle class="b84997a1-8d68-4d14-b232-7b1cff8a1272" cx="640.43" cy="613.27" r="12.38"/><g class="b923146a-c51b-4847-bfe9-03bfed893846"><circle class="fe704a96-7642-40f3-9a40-cbb659f8c126" cx="701.61" cy="742.18" r="14.57"/></g><circle class="bd86e641-164f-4d7c-b1c1-044cc6592dec" cx="701.61" cy="742.18" r="13.84"/><g class="b923146a-c51b-4847-bfe9-03bfed893846"><circle class="a57b6543-5953-4a51-a645-4e190fda579c" cx="238.17" cy="649.15" r="16.01"/></g><circle class="b81abbf9-4783-4f7b-b281-c97a5136bedc" cx="238.17" cy="649.15" r="15.29"/><g class="fdf454bd-1b19-4a65-8cfc-dc3300e7d3ec"><path class="e13029e8-f53f-4412-9bab-52055a758597" d="M681.32,27.47h0a44.34,44.34,0,0,0-13.08-11.58h0a43.92,43.92,0,1,0-22,82c.93,0,1.86,0,2.78-.09A43.91,43.91,0,0,0,681.3,27.52Z"/></g><path class="ab7cdef5-877f-420a-a996-6b18567333a7" d="M687.77,53.92a41.51,41.51,0,0,1-38.88,41.43c-.87.06-1.75.09-2.63.09A41.51,41.51,0,1,1,667,18h0a42,42,0,0,1,12.37,11h0A41.3,41.3,0,0,1,687.77,53.92Z"/><path class="e04bb3cf-622c-4fda-be36-d1e026bc5d34" d="M636,27.59a46.83,46.83,0,0,0-6.19,3.26,9.81,9.81,0,0,0-3.31,3,3.89,3.89,0,0,0-.08,4.23c1,1.38,3,1.6,4.67,1.69a8.88,8.88,0,0,0,8.48-2.8l3.57-3.24c1.24-1.12,2.6-2.67,2.06-4.25a3.59,3.59,0,0,0-3-2,12.63,12.63,0,0,0-8.93,1.57"/><circle class="e04bb3cf-622c-4fda-be36-d1e026bc5d34" cx="621.13" cy="70.31" r="2.18"/><circle class="e04bb3cf-622c-4fda-be36-d1e026bc5d34" cx="665.56" cy="56.47" r="8.01"/><path class="e04bb3cf-622c-4fda-be36-d1e026bc5d34" d="M679.4,28.91h0a10.93,10.93,0,1,1-12.37-11h0A42,42,0,0,1,679.4,28.91Z"/><path class="e04bb3cf-622c-4fda-be36-d1e026bc5d34" d="M680.2,77.83a41.4,41.4,0,0,1-31.31,17.52c0-.57-.08-1.15-.08-1.73A19.67,19.67,0,0,1,680.2,77.83Z"/><circle class="aa482a47-ce38-4852-a7a2-2f283698fd30" cx="632.81" cy="284.72" r="5.1"/><circle class="aa482a47-ce38-4852-a7a2-2f283698fd30" cx="172.81" cy="478.72" r="5.1"/><circle class="aa482a47-ce38-4852-a7a2-2f283698fd30" cx="759.81" cy="567.72" r="5.1"/><circle class="aa482a47-ce38-4852-a7a2-2f283698fd30" cx="348.73" cy="226.06" r="5.1"/><circle class="aa482a47-ce38-4852-a7a2-2f283698fd30" cx="331.98" cy="108.8" r="5.1"/><circle class="aa482a47-ce38-4852-a7a2-2f283698fd30" cx="217.77" cy="341.13" r="5.1"/><polygon class="aa482a47-ce38-4852-a7a2-2f283698fd30" points="709.18 457.12 704.64 457.12 704.64 452.59 702.79 452.59 702.79 457.12 698.25 457.12 698.25 458.98 702.79 458.98 702.79 463.51 704.64 463.51 704.64 458.98 709.18 458.98 709.18 457.12"/><polygon class="aa482a47-ce38-4852-a7a2-2f283698fd30" points="765.18 290.12 760.64 290.12 760.64 285.59 758.79 285.59 758.79 290.12 754.25 290.12 754.25 291.98 758.79 291.98 758.79 296.51 760.64 296.51 760.64 291.98 765.18 291.98 765.18 290.12"/><polygon class="aa482a47-ce38-4852-a7a2-2f283698fd30" points="531.55 152.41 527.01 152.41 527.01 147.87 525.16 147.87 525.16 152.41 520.62 152.41 520.62 154.26 525.16 154.26 525.16 158.8 527.01 158.8 527.01 154.26 531.55 154.26 531.55 152.41"/><polygon class="aa482a47-ce38-4852-a7a2-2f283698fd30" points="649.65 371.63 645.11 371.63 645.11 367.1 643.26 367.1 643.26 371.63 638.73 371.63 638.73 373.49 643.26 373.49 643.26 378.02 645.11 378.02 645.11 373.49 649.65 373.49 649.65 371.63"/><polygon class="aa482a47-ce38-4852-a7a2-2f283698fd30" points="563.59 522.39 559.06 522.39 559.06 517.86 557.21 517.86 557.21 522.39 552.67 522.39 552.67 524.25 557.21 524.25 557.21 528.78 559.06 528.78 559.06 524.25 563.59 524.25 563.59 522.39"/><polygon class="aa482a47-ce38-4852-a7a2-2f283698fd30" points="258.93 161.4 254.39 161.4 254.39 156.87 252.54 156.87 252.54 161.4 248 161.4 248 163.25 252.54 163.25 252.54 167.79 254.39 167.79 254.39 163.25 258.93 163.25 258.93 161.4"/><polygon class="aa482a47-ce38-4852-a7a2-2f283698fd30" points="140.93 260.4 136.39 260.4 136.39 255.87 134.54 255.87 134.54 260.4 130 260.4 130 262.25 134.54 262.25 134.54 266.79 136.39 266.79 136.39 262.25 140.93 262.25 140.93 260.4"/><polygon class="aa482a47-ce38-4852-a7a2-2f283698fd30" points="291.56 406.12 287.02 406.12 287.02 401.58 285.17 401.58 285.17 406.12 280.64 406.12 280.64 407.97 285.17 407.97 285.17 412.51 287.02 412.51 287.02 407.97 291.56 407.97 291.56 406.12"/><circle class="a78a43f5-190e-4d35-bbae-7a4c657d395b" cx="701.61" cy="742.18" r="13.84"/><g class="fdf454bd-1b19-4a65-8cfc-dc3300e7d3ec"><path class="a931758a-3e97-4869-902e-52091b5504fd" d="M329,308.32h0a21.1,21.1,0,0,0-6.23-5.52h0a20.92,20.92,0,1,0-10.46,39h1.32A20.92,20.92,0,0,0,329,308.33Z"/></g><path class="ab7cdef5-877f-420a-a996-6b18567333a7" d="M332,320.92a19.77,19.77,0,0,1-18.52,19.73h-1.25a19.77,19.77,0,1,1,9.89-36.9h0A20,20,0,0,1,328,309h0A19.63,19.63,0,0,1,332,320.92Z"/><path class="ea2634b3-5ac3-4c13-827a-3ae457ad0d04" d="M307.39,308.38a22.39,22.39,0,0,0-3,1.55,4.65,4.65,0,0,0-1.58,1.41,1.86,1.86,0,0,0,0,2,2.82,2.82,0,0,0,2.22.8,4.21,4.21,0,0,0,4-1.33l1.7-1.54c.59-.54,1.24-1.27,1-2a1.79,1.79,0,0,0-1.44-1A6,6,0,0,0,306,309"/><circle class="ea2634b3-5ac3-4c13-827a-3ae457ad0d04" cx="300.29" cy="328.72" r="1.04"/><circle class="ea2634b3-5ac3-4c13-827a-3ae457ad0d04" cx="321.45" cy="322.13" r="3.82"/><path class="ea2634b3-5ac3-4c13-827a-3ae457ad0d04" d="M328,309.05h0a5.2,5.2,0,1,1-5.89-5.22h0A20,20,0,0,1,328,309.05Z"/><path class="ea2634b3-5ac3-4c13-827a-3ae457ad0d04" d="M328.43,332.31a19.72,19.72,0,0,1-14.91,8.35v-.83a9.37,9.37,0,0,1,15-7.52Z"/></svg>